<svg width="39" height="50" viewBox="0 0 39 50" fill="none" xmlns="http://www.w3.org/2000/svg">
<path d="M20.2018 2.63248L19.5 1.94103L18.7982 2.63248C16.0759 5.31451 11.6561 9.83119 7.91182 14.8903C4.20496 19.8989 1 25.6465 1 30.7586C1 40.847 9.29682 49 19.5 49C29.7032 49 38 40.847 38 30.7586C38 28.1654 37.1174 25.38 35.7935 22.6411C34.4644 19.8914 32.6559 17.1184 30.7248 14.5314C26.8627 9.35761 22.4458 4.84333 20.2018 2.63248Z" fill="#7B61FF" stroke="#302D43" stroke-width="2"/>
<ellipse cx="11.3624" cy="28.9483" rx="5.3375" ry="5.25862" fill="white"/>
<ellipse cx="27.9874" cy="28.9483" rx="5.3375" ry="5.25862" fill="white"/>
<ellipse cx="11.3623" cy="28.9483" rx="2.1875" ry="2.15517" fill="#7B61FF"/>
<ellipse cx="27.9873" cy="29.1207" rx="2.1875" ry="2.15517" fill="#7B61FF"/>
</svg>
