<svg width="45" height="60" viewBox="0 0 45 60" fill="none" xmlns="http://www.w3.org/2000/svg">
<path d="M45 30.9943C45 36.2026 41.1944 40.4247 36.5 40.4247C31.8056 40.4247 28 36.2026 28 30.9943C28 25.7861 33.865 18.9234 36.5 16C38.6675 18.4048 45 25.7861 45 30.9943Z" fill="#5388EE"/>
<path d="M17 49.5756C17 54.7839 13.1944 59.006 8.5 59.006C3.80558 59.006 0 54.7839 0 49.5756C0 44.3673 5.865 37.5047 8.5 34.5813C10.6675 36.986 17 44.3673 17 49.5756Z" fill="#5388EE"/>
<path d="M17 15.1824C17 20.3906 13.1944 24.6128 8.5 24.6128C3.80558 24.6128 0 20.3906 0 15.1824C0 9.97411 5.865 3.11147 8.5 0.188049C10.6675 2.5928 17 9.97411 17 15.1824Z" fill="#5388EE"/>
</svg>
