<svg width="57" height="38" viewBox="0 0 57 38" fill="none" xmlns="http://www.w3.org/2000/svg">
<circle cx="36.5" cy="17.5" r="17.5" fill="#F9E74A"/>
<ellipse cx="12.5" cy="23" rx="9.5" ry="9" fill="#CBD7DF"/>
<ellipse cx="26" cy="24.5" rx="8" ry="8.5" fill="#CBD7DF"/>
<circle cx="43" cy="24" r="8" fill="#CBD7DF"/>
<ellipse cx="32" cy="29" rx="10" ry="9" fill="#ADC3D2"/>
<ellipse cx="43.5" cy="31" rx="6.5" ry="6" fill="#949EA5"/>
<ellipse cx="44.5" cy="32" rx="6.5" ry="6" fill="#ADC3D2"/>
<ellipse cx="43.5" cy="25" rx="6.5" ry="6" fill="#ADC3D2"/>
<path d="M56.8696 30C56.8696 33.3137 53.9594 36 50.3696 36C46.7797 36 43.8696 33.3137 43.8696 30C43.8696 26.6863 46.7797 24 50.3696 24C53.9594 24 56.8696 26.6863 56.8696 30Z" fill="#ADC3D2"/>
<ellipse cx="8.5" cy="30" rx="8.5" ry="8" fill="#ADC3D2"/>
<ellipse cx="20" cy="27" rx="9" ry="8" fill="#ADC3D2"/>
<rect x="9" y="29" width="37" height="9" fill="#ADC3D2"/>
</svg>
