<svg width="82" height="82" viewBox="0 0 82 82" fill="none" xmlns="http://www.w3.org/2000/svg">
<path d="M40.9544 10.9738L50.5804 20.9658L64.3943 22.2618L62.5839 36.0177L70.1835 47.6259L58.2999 54.7871L53.9625 67.9662L40.9544 63.1403L27.9462 67.9662L23.6089 54.7871L11.7253 47.6259L19.3249 36.0177L17.5145 22.2618L31.3283 20.9658L40.9544 10.9738Z" fill="#EDA232"/>
<path d="M55.9448 14.9904L59.2852 28.4568L70.6003 36.4861L62.1545 47.4938L62.9319 61.3466L49.0598 61.6066L38.714 70.8514L29.8616 60.1679L16.1832 57.8432L19.0165 44.2611L12.3056 32.1175L24.6911 25.8643L30.0012 13.0462L42.6124 18.8307L55.9448 14.9904Z" fill="#EDA232"/>
<circle cx="40.9544" cy="40.9545" r="19.7242" fill="#F9E74A"/>
<circle cx="30.6979" cy="41.7434" r="4.2338" fill="white"/>
<circle cx="30.6979" cy="41.7434" r="4.2338" fill="white"/>
<circle cx="30.6979" cy="41.7434" r="4.2338" fill="white"/>
<circle cx="30.6979" cy="41.7434" r="4.2338" stroke="#302D43"/>
<circle cx="51.2111" cy="41.7434" r="4.2338" fill="white"/>
<circle cx="51.2111" cy="41.7434" r="4.2338" fill="white"/>
<circle cx="51.2111" cy="41.7434" r="4.2338" fill="white"/>
<circle cx="51.2111" cy="41.7434" r="4.2338" stroke="#302D43"/>
<path d="M36.2207 47.2662C36.2207 47.2662 37.1763 44.1104 40.9545 44.1104C44.7327 44.1104 45.6883 47.2662 45.6883 47.2662" stroke="#302D43" stroke-width="2" stroke-linecap="round"/>
<line x1="35.7446" y1="36.0642" x2="28.1744" y2="33.5407" stroke="#302D43" stroke-width="2" stroke-linecap="round"/>
<line x1="1" y1="-1" x2="8.97973" y2="-1" transform="matrix(0.948683 -0.316228 -0.316228 -0.948683 44.8992 35.4317)" stroke="#302D43" stroke-width="2" stroke-linecap="round"/>
<circle cx="51.6055" cy="42.1379" r="1.97242" fill="#302D43"/>
<circle cx="31.0923" cy="42.1379" r="1.97242" fill="#302D43"/>
</svg>
